<svg width="23" height="23" viewBox="0 0 23 23" fill="none" xmlns="http://www.w3.org/2000/svg">
<path d="M11.1981 17.5881H9.3771C8.46658 17.5881 7.62625 17.5179 6.71573 17.5179C5.98694 17.5174 5.25987 17.4471 4.54452 17.3077C3.98984 17.2462 3.47264 16.9977 3.07801 16.603C2.68339 16.2084 2.43486 15.6912 2.37331 15.1366C2.23381 14.3033 2.1635 13.46 2.16313 12.6152C2.09308 11.7996 2.09308 10.9795 2.16313 10.164C2.18665 9.10874 2.27991 8.05619 2.44231 7.01325C2.5268 6.51226 2.76958 6.05154 3.13506 5.69861C3.50054 5.34569 3.9695 5.11915 4.47314 5.05223C5.10328 4.98203 5.73382 4.91225 6.43416 4.84205C7.48467 4.77186 8.53517 4.77185 9.58488 4.77185H12.6702C13.3705 4.77185 14.1411 4.77186 14.8414 4.84205C15.8967 4.86554 16.9492 4.95878 17.9921 5.12121C18.3772 5.16113 18.746 5.29762 19.0644 5.51799C19.3827 5.73837 19.6402 6.0355 19.8132 6.38191C19.9708 6.71164 20.0655 7.06793 20.0924 7.43243C20.2323 8.13276 20.2323 8.83308 20.3025 9.53342C20.3025 10.0236 20.3727 10.5137 20.3727 11.0741C20.3727 11.9144 20.3727 12.7548 20.3025 13.5955C20.2323 14.2256 20.1625 14.8561 20.0924 15.4161C20.0208 15.8507 19.8235 16.2548 19.5248 16.5784C19.2261 16.902 18.8391 17.1311 18.4117 17.2372C18.019 17.3143 17.621 17.3611 17.2212 17.3771C16.0307 17.4473 14.77 17.5171 13.5093 17.5171C12.6702 17.5881 11.9687 17.5881 11.1981 17.5881ZM9.44729 11.2149V13.7363C9.44729 13.8763 9.44729 13.8762 9.58728 13.8064C10.1456 13.4563 10.7778 13.1061 11.3381 12.756C12.1784 12.2658 13.089 11.7756 13.9305 11.2855C14.0007 11.2855 14.0705 11.2855 14.0007 11.2153C14.0007 11.1451 13.9305 11.1451 13.8607 11.1451C13.3705 10.8659 12.9502 10.6549 12.46 10.3749L9.51868 8.6939C9.3787 8.6237 9.37869 8.62371 9.37869 8.7641L9.44729 11.2149Z" fill="white"/>
</svg>
