<svg width="15" height="17" viewBox="0 0 15 17" fill="none" xmlns="http://www.w3.org/2000/svg">
<path d="M13.6853 4.34756V6.44464C13.6853 6.44464 12.7332 6.40538 12.0266 6.2189C11.0418 5.95717 10.4104 5.55477 10.4104 5.55477C10.4104 5.55477 9.97202 5.26687 9.93931 5.24724V10.7762C9.93931 11.0837 9.85752 11.8525 9.61215 12.4938C9.29153 13.3313 8.79425 13.8842 8.70265 13.9954C8.70265 13.9954 8.09741 14.7413 7.03415 15.2419C6.07558 15.6934 5.23151 15.6836 4.9796 15.6934C4.9796 15.6934 3.52375 15.7523 2.21185 14.8657L2.20531 14.8591C2.0679 14.7184 1.93704 14.5712 1.81599 14.4175C1.39723 13.8842 1.14205 13.256 1.07662 13.0761V13.0728C0.971927 12.762 0.756003 12.0096 0.785447 11.2866C0.837793 10.0074 1.26964 9.21893 1.38415 9.02263C1.68513 8.4861 2.08099 8.00518 2.54555 7.60277C2.95777 7.25599 3.42561 6.9779 3.92616 6.78488C4.46924 6.55587 5.05158 6.43482 5.64046 6.42501V8.54826C5.64046 8.54826 4.56411 8.19166 3.70042 8.82307C3.09845 9.2909 2.77783 9.74565 2.68296 10.5603C2.67969 11.159 2.82691 12.0063 3.63171 12.5723C3.72659 12.6344 3.81819 12.6901 3.9098 12.7391C4.05048 12.9289 4.2206 13.0957 4.41689 13.2331C5.20534 13.7533 5.86293 13.7893 6.70699 13.4523C7.2697 13.2266 7.69174 12.7195 7.88803 12.1535C8.01235 11.8002 8.00908 11.4469 8.00908 11.0805V0.657227H9.97202C10.0538 1.13815 10.2763 1.82518 10.8717 2.50239C11.1105 2.75758 11.3788 2.98659 11.67 3.17634C11.755 3.27121 12.1967 3.72923 12.7659 4.01386C13.0571 4.16108 13.3679 4.27231 13.6853 4.34756Z" fill="white"/>
<path d="M0.294678 12.4286L0.343751 12.5693C0.337208 12.5529 0.317579 12.5038 0.294678 12.4286Z" fill="white"/>
<path d="M3.92591 6.78806C3.42209 6.98109 2.95752 7.25917 2.54531 7.60596C2.07747 8.00836 1.68488 8.49255 1.3839 9.02909C1.26939 9.22539 0.837545 10.0106 0.7852 11.293C0.755756 12.0193 0.974952 12.7685 1.07637 13.0793V13.0826C1.1418 13.2592 1.39698 13.8906 1.81575 14.4239C1.93679 14.5777 2.06766 14.7249 2.20506 14.8656C1.76013 14.558 1.36754 14.1884 1.03057 13.7663C0.615079 13.2396 0.359896 12.6147 0.294464 12.4315V12.425C0.189774 12.1142 -0.0294209 11.3617 0.00329479 10.6354C0.0556399 9.35625 0.487487 8.5678 0.601992 8.37151C0.902977 7.83497 1.29557 7.35077 1.7634 6.94837C2.17562 6.60159 2.64345 6.3235 3.144 6.13048C3.45807 5.99962 3.78523 5.90474 4.11893 5.84258C4.62275 5.75425 5.13639 5.74771 5.64348 5.81968V6.42819C5.05133 6.43801 4.46899 6.55905 3.92591 6.78806Z" fill="white"/>
<path d="M9.97506 0.657708H8.01212V11.0809C8.01212 11.4474 8.01212 11.8007 7.89107 12.154C7.69151 12.7167 7.26947 13.2271 6.71004 13.4528C5.86597 13.7931 5.20511 13.7538 4.41994 13.2336C4.22364 13.0995 4.05352 12.9326 3.91284 12.7429C4.58351 13.0995 5.18221 13.093 5.92486 12.7952C6.48757 12.5695 6.9096 12.0591 7.1059 11.4964C7.23022 11.1431 7.22694 10.7898 7.22694 10.4233V0.00012207H9.93908C9.93581 0.00012207 9.90636 0.258576 9.97506 0.657708ZM13.685 3.76897V4.34804C13.3677 4.27279 13.0569 4.16156 12.7657 4.01434C12.1997 3.73299 11.7581 3.27169 11.6697 3.17682C11.7712 3.24225 11.8726 3.30114 11.9805 3.35675C12.6741 3.70027 13.3513 3.80496 13.685 3.76897Z" fill="white"/>
</svg>
