<svg width="18" height="18" viewBox="0 0 18 18" fill="none" xmlns="http://www.w3.org/2000/svg">
<g clip-path="url(#clip0_0_1401)">
<g clip-path="url(#clip1_0_1401)">
<path d="M11.4958 7.42155C11.4269 7.38852 11.3569 7.35673 11.286 7.32628C11.1625 5.05071 9.91909 3.74794 7.83125 3.73461C7.82179 3.73455 7.81238 3.73455 7.80292 3.73455C6.55412 3.73455 5.51552 4.2676 4.87626 5.23758L6.02451 6.02526C6.50206 5.30072 7.25152 5.14626 7.80347 5.14626C7.80985 5.14626 7.81625 5.14626 7.82256 5.14632C8.51001 5.1507 9.02876 5.35058 9.36451 5.74036C9.60884 6.02413 9.77226 6.41628 9.85317 6.91118C9.24367 6.80758 8.58451 6.77573 7.87984 6.81613C5.89482 6.93048 4.61868 8.08818 4.70439 9.69686C4.74788 10.5129 5.1544 11.2149 5.84901 11.6734C6.43629 12.0611 7.19267 12.2507 7.97878 12.2078C9.01692 12.1509 9.83134 11.7548 10.3995 11.0305C10.831 10.4805 11.1039 9.76778 11.2244 8.86969C11.7192 9.16828 12.0858 9.56119 12.2883 10.0335C12.6327 10.8364 12.6528 12.1559 11.5762 13.2315C10.6329 14.1739 9.49909 14.5815 7.78555 14.5941C5.88477 14.58 4.44724 13.9704 3.5126 12.7823C2.63738 11.6697 2.18507 10.0627 2.16819 8.00586C2.18507 5.94901 2.63738 4.34199 3.5126 3.22942C4.44724 2.04127 5.88475 1.43169 7.78552 1.41757C9.70009 1.4318 11.1627 2.04431 12.1331 3.23819C12.6089 3.82366 12.9677 4.55993 13.2042 5.41838L14.5498 5.05938C14.2631 4.00271 13.812 3.09217 13.1982 2.33703C11.9541 0.806416 10.1346 0.0221217 7.79022 0.00585938H7.78083C5.44122 0.0220652 3.6421 0.809343 2.43345 2.3458C1.35792 3.71306 0.803124 5.6155 0.784482 8.00023L0.784424 8.00586L0.784482 8.01148C0.803124 10.3962 1.35792 12.2987 2.43345 13.6659C3.6421 15.2024 5.44122 15.9897 7.78083 16.0059H7.79022C9.87026 15.9914 11.3364 15.4469 12.5443 14.2401C14.1245 12.6614 14.0769 10.6824 13.5561 9.46761C13.1824 8.59644 12.47 7.88888 11.4958 7.42155ZM7.90447 10.7981C7.03447 10.8471 6.13062 10.4566 6.08606 9.62019C6.05302 9.00003 6.52741 8.30803 7.95786 8.22559C8.12167 8.21614 8.28242 8.21153 8.44034 8.21153C8.95992 8.21153 9.44601 8.262 9.88792 8.35861C9.72309 10.4171 8.75626 10.7514 7.90447 10.7981Z" fill="white"/>
</g>
</g>
<defs>
<clipPath id="clip0_0_1401">
<rect width="17.2293" height="17.2293" fill="white"/>
</clipPath>
<clipPath id="clip1_0_1401">
<rect width="16" height="16" fill="white" transform="translate(-0.298828 0.00585938)"/>
</clipPath>
</defs>
</svg>
